<svg width="26" height="25" viewBox="0 0 26 25" fill="none" xmlns="http://www.w3.org/2000/svg">
<rect x="1.47607" y="0.5" width="24" height="24" rx="2.5" stroke="#F5F5F6"/>
<path fill-rule="evenodd" clip-rule="evenodd" d="M17.5651 3.9261C16.1954 4.17216 14.8462 5.08295 14.2345 6.17445C13.7363 7.06363 13.5718 7.98649 13.5718 9.89307V11.6101H11.8194H10.0669V13.4661V15.3222H11.8194H13.5718V20.1612V25.0002H15.6876H17.8033L17.8417 20.1943L17.88 15.3885L19.961 15.3517L22.0421 15.3149V13.4661V11.6173L19.961 11.5805L17.88 11.5438L17.8835 10.0002C17.8887 7.6125 18.1459 7.36763 20.6474 7.36763H22.1881V5.57786V3.78809L20.1801 3.80267C19.0757 3.81062 17.8989 3.86617 17.5651 3.9261Z" fill="#F5F5F6"/>
</svg>
