<svg width="25" height="25" viewBox="0 0 25 25" fill="none" xmlns="http://www.w3.org/2000/svg">
<path fill-rule="evenodd" clip-rule="evenodd" d="M5.24194 0.217458C3.01754 0.783648 1.52722 2.01043 0.564919 4.06727L0 5.27493V12.3196C0 20.0154 0.0389113 20.3396 1.1621 22.0058C2.00706 23.2594 3.16351 24.122 4.65262 24.6093C5.73548 24.9636 6.45726 25 12.3992 25C18.0831 25 19.1034 24.9531 20.0976 24.646C22.2067 23.9944 23.9018 22.3065 24.6087 20.1539C24.9631 19.0744 25 18.3533 25 12.5209C25 7.00973 24.9502 5.91961 24.655 4.96899C24.1935 3.48276 23.2942 2.17225 22.1942 1.38365C20.3881 0.0888419 20.2302 0.0654939 12.9032 0.0105455C8.02944 -0.0258855 5.98044 0.0294656 5.24194 0.217458ZM20.1212 2.82902C21.4137 3.46284 22.0821 4.28928 22.506 5.77812C22.8851 7.10895 22.8806 17.7647 22.5006 19.2487C22.128 20.7036 21.003 21.9309 19.5913 22.4227C18.6756 22.7417 17.8109 22.786 12.5 22.786C6.11008 22.7858 5.42923 22.7079 4.11794 21.8255C3.20262 21.2098 2.59536 20.2636 2.33367 19.045C2.20806 18.4603 2.11694 15.6443 2.11694 12.3462C2.11694 6.00536 2.24637 5.12518 3.36512 3.85291C4.73548 2.29483 5.41895 2.17789 12.9032 2.22096L18.9516 2.25578L20.1212 2.82902ZM18.5484 4.40622C17.573 4.97643 17.3917 5.80972 18.0591 6.65669C18.8887 7.70956 20.6653 7.12586 20.6653 5.80046C20.6653 4.69545 19.4371 3.88652 18.5484 4.40622ZM10.6855 6.2487C8.79153 6.87527 7.30343 8.17954 6.51472 9.90428C5.87984 11.2925 5.86694 13.7231 6.4871 15.0722C7.13448 16.4806 8.38569 17.7178 9.80565 18.3541C10.9192 18.8528 11.2151 18.8995 12.7929 18.8242C14.2486 18.7546 14.7044 18.6469 15.4921 18.186C17.6317 16.9343 18.6933 15.2429 18.8173 12.8884C18.9121 11.0862 18.502 9.76057 17.4306 8.40739C15.956 6.54518 12.8218 5.54202 10.6855 6.2487ZM14.571 8.92829C18.0075 10.9032 16.8286 16.2801 12.8875 16.6064C11.4496 16.7253 10.2208 16.2576 9.3004 15.2405C7.78085 13.5613 7.82641 11.4036 9.41774 9.68006C10.8222 8.15881 12.7442 7.87864 14.571 8.92829Z" fill="#F5F5F6"/>
</svg>
