<svg width="23" height="25" viewBox="0 0 23 25" fill="none" xmlns="http://www.w3.org/2000/svg">
<path fill-rule="evenodd" clip-rule="evenodd" d="M12.076 8.8591C12.0501 18.8385 12.0838 18.0455 11.6497 18.8913C11.2665 19.6379 10.6893 20.192 9.91535 20.5564C9.26492 20.8626 8.91346 20.94 8.17748 20.9391C7.45943 20.9384 7.0978 20.8603 6.49072 20.5754C5.71731 20.2125 5.09679 19.6197 4.7277 18.8913C4.42838 18.3005 4.34808 17.9602 4.34726 17.2783C4.34634 16.5708 4.42659 16.244 4.76133 15.592C4.96292 15.1993 5.07134 15.0595 5.4641 14.6858C5.97094 14.2035 6.43219 13.9361 7.10408 13.7351C7.59677 13.5877 8.40825 13.5525 8.91863 13.6565C9.12947 13.6995 9.33076 13.7346 9.36587 13.7346C9.41597 13.7347 9.42977 13.2921 9.42977 11.6848V9.63493L9.18697 9.59588C9.05341 9.57442 8.57616 9.55849 8.12636 9.56049C6.81156 9.56641 5.77666 9.78963 4.6383 10.3129C0.150042 12.376 -1.37167 17.6003 1.36635 21.5459C1.83935 22.2275 2.86046 23.2107 3.55167 23.65C5.68603 25.0068 8.26156 25.358 10.7076 24.6258C12.8995 23.9698 14.8595 22.2537 15.74 20.2197C15.9685 19.6919 16.1426 19.1125 16.2567 18.5002C16.3407 18.0494 16.3467 17.6308 16.3343 13.1115C16.327 10.4164 16.3369 8.21147 16.3565 8.21147C16.3761 8.21147 16.4759 8.27462 16.5783 8.35179C17.1556 8.78671 18.3168 9.3817 19.2047 9.69745C20.1975 10.0505 21.6107 10.3132 22.5172 10.3132H22.9761L22.9627 8.297L22.9494 6.28079L22.4553 6.24995C20.8879 6.1521 19.4643 5.52759 18.2915 4.42344C17.1504 3.3492 16.4801 1.96821 16.3517 0.427681L16.3161 0H14.2076H12.099L12.076 8.8591Z" fill="#F5F5F6"/>
</svg>
