<svg width="26" height="21" viewBox="0 0 26 21" fill="none" xmlns="http://www.w3.org/2000/svg">
<path fill-rule="evenodd" clip-rule="evenodd" d="M17.1719 0.656045C16.6879 0.760471 16.3933 0.860783 15.9735 1.06415C14.6057 1.72685 13.6259 2.90536 13.2352 4.35797C13.096 4.87533 13.0481 5.86324 13.1372 6.38006L13.1876 6.67271L12.6139 6.63549C10.5689 6.50274 8.32392 5.79262 6.41682 4.67512C5.36362 4.05793 4.60019 3.4659 3.56752 2.46529C2.46521 1.39729 2.56164 1.42216 2.27696 2.13221C1.79212 3.34143 1.75316 4.44403 2.15632 5.54507C2.47006 6.40201 3.13516 7.33952 3.80499 7.86899L4.15413 8.14499H3.96158C3.60402 8.14499 2.82449 7.95928 2.34524 7.75991L1.86894 7.56173V7.85587C1.86894 8.90628 2.44044 10.1804 3.30423 11.0559C3.94401 11.7043 4.57598 12.092 5.46423 12.3811L5.95589 12.5411L5.42668 12.6177C5.12111 12.6619 4.63356 12.6819 4.27311 12.6651C3.54023 12.6308 3.56002 12.5777 4.00079 13.397C4.48121 14.2901 5.2702 15.0561 6.17099 15.504C6.82822 15.8308 7.17263 15.9392 7.85795 16.0353L8.40289 16.1116L8.16272 16.2953C8.03064 16.3963 7.73595 16.5894 7.50788 16.7244C5.72917 17.7776 3.7404 18.2833 1.66214 18.2108C0.748877 18.1789 0.748876 18.1803 1.65323 18.6516C4.74603 20.2634 8.08528 20.7808 11.5485 20.1848C16.7908 19.2826 20.9607 15.6605 22.6723 10.5225C23.133 9.1397 23.3792 7.67892 23.3792 6.3277V5.53523L23.7326 5.27795C24.396 4.79488 25.4188 3.73147 25.8661 3.0597L25.9761 2.89457L25.6883 3.01426C25.0646 3.27368 23.2441 3.73982 23.1627 3.66086C23.1494 3.64792 23.3355 3.49142 23.5765 3.31317C24.2578 2.80892 24.9114 1.93964 25.1944 1.16118L25.2748 0.940042L24.5267 1.28773C23.8249 1.61395 22.9884 1.90922 22.3204 2.06655L22.0299 2.13501L21.7059 1.85078C21.0603 1.28457 20.2829 0.888037 19.429 0.689383C18.8448 0.553467 17.7243 0.536947 17.1719 0.656045Z" fill="#F5F5F6"/>
</svg>
