<svg width="26" height="15" viewBox="0 0 26 15" fill="none" xmlns="http://www.w3.org/2000/svg">
<path fill-rule="evenodd" clip-rule="evenodd" d="M10.1231 0.495628C9.78863 0.626579 9.30645 1.05808 9.30645 1.22654C9.30645 1.30237 9.41262 1.36434 9.54231 1.36434C9.67217 1.36434 9.96994 1.52953 10.204 1.73126C10.7708 2.21967 11.0204 3.88941 10.7961 5.69288C10.6104 7.18584 10.3835 7.50955 9.73113 7.21291C9.15552 6.95101 7.71796 4.79237 6.76895 2.76468C6.21669 1.58482 5.92791 1.15087 5.61691 1.03264C5.07641 0.827491 1.93652 0.828632 1.39504 1.03411C1.15281 1.12608 0.976074 1.32096 0.976074 1.4961C0.976074 1.6626 1.58256 3.00701 2.32363 4.48334C5.41126 10.6341 8.10116 13.5356 11.4451 14.3224C12.8248 14.6471 15.0771 14.6572 15.3409 14.34C15.4477 14.2115 15.599 13.6554 15.6769 13.1045C15.755 12.5535 15.9355 11.9247 16.0782 11.7073C16.524 11.0279 16.9594 11.2044 18.333 12.6207C20.239 14.5858 20.2057 14.5722 23.1169 14.5729C25.7596 14.5735 25.9672 14.5135 25.9672 13.7484C25.9672 13.1256 25.3395 12.2732 23.5001 10.398C22.611 9.49158 21.8837 8.66234 21.8837 8.55519C21.8837 8.21061 22.3208 7.52047 23.7528 5.60433C25.9497 2.66455 26.4549 1.37836 25.5482 1.03411C25.0136 0.831241 20.9748 0.825532 20.5975 1.0271C20.441 1.11075 19.8241 2.15656 19.2264 3.35094C18.0243 5.75387 16.8495 7.28613 16.2731 7.20296C15.6491 7.11311 15.5183 6.51185 15.5158 3.71933C15.5139 1.72001 15.4587 1.02563 15.2819 0.783949C15.0735 0.499054 14.8159 0.463992 12.7093 0.433497C11.4217 0.414906 10.2579 0.442792 10.1231 0.495628Z" fill="#F5F5F6"/>
</svg>
