<svg width="25" height="19" viewBox="0 0 25 19" fill="none" xmlns="http://www.w3.org/2000/svg">
<path fill-rule="evenodd" clip-rule="evenodd" d="M7.74007 0.913502C5.91747 0.980991 4.0439 1.09437 3.57656 1.16574C1.90521 1.42068 0.837824 2.28487 0.451723 3.69638C0.0724186 5.08209 -0.118593 9.38852 0.0790461 12.0923C0.288411 14.9558 0.428101 15.6226 0.993319 16.4557C1.9771 17.9057 3.66204 18.1525 12.5833 18.1534C18.7616 18.1539 21.8591 17.9567 22.7617 17.505C24.304 16.7333 24.6453 15.8706 24.9194 12.0499C25.1165 9.30382 24.9347 5.07703 24.563 3.76185C24.0558 1.96666 23.0348 1.32771 20.3061 1.09808C17.4727 0.859512 11.5496 0.77262 7.74007 0.913502ZM13.9828 8.05259C15.3132 8.81234 16.4025 9.47186 16.4036 9.51826C16.4053 9.59132 13.2111 11.4547 10.7565 12.8124L9.94928 13.259V9.51826V5.77755L10.7565 6.22433C11.2004 6.47015 12.6523 7.29284 13.9828 8.05259Z" fill="#F5F5F6"/>
</svg>
